<?xml version="1.0" standalone="no"?>
<!DOCTYPE svg PUBLIC "-//W3C//DTD SVG 20010904//EN"
 "http://www.w3.org/TR/2001/REC-SVG-20010904/DTD/svg10.dtd">
<svg version="1.0" xmlns="http://www.w3.org/2000/svg"
 width="277.000000pt" height="277.000000pt" viewBox="0 0 277.000000 277.000000"
 preserveAspectRatio="xMidYMid meet">

<g transform="translate(0.000000,277.000000) scale(0.100000,-0.100000)"
fill="#000000" stroke="none">
<path d="M1200 2755 c-295 -42 -540 -158 -742 -353 -49 -48 -119 -125 -153
-171 -68 -90 -165 -262 -164 -289 0 -13 3 -11 11 6 6 12 15 22 19 22 5 0 22
26 38 58 77 151 249 343 405 450 356 247 800 302 1204 149 227 -86 441 -249
578 -440 131 -184 213 -389 243 -607 25 -186 0 -440 -64 -635 -27 -84 -109
-246 -153 -304 -14 -20 -26 -49 -27 -68 0 -18 1 -33 2 -33 2 0 23 31 48 70
102 160 183 356 222 540 24 115 24 369 -1 493 -35 178 -128 400 -231 552 -59
86 -62 94 -25 60 66 -61 173 -241 221 -373 37 -100 54 -98 19 2 -30 88 -106
226 -176 318 -70 93 -172 206 -154 170 6 -13 10 -26 7 -28 -2 -2 -49 34 -105
80 -56 47 -126 101 -157 120 -136 87 -316 161 -456 186 -35 6 -73 16 -84 23
-29 17 -215 18 -325 2z"/>
<path d="M1895 2298 c-15 -11 -35 -40 -45 -64 -41 -95 -133 -165 -348 -263
-273 -125 -381 -192 -455 -283 -41 -51 -90 -146 -107 -207 -17 -63 -14 -194 6
-255 52 -157 205 -261 365 -247 21 1 39 45 42 101 l2 43 -50 12 c-69 16 -108
38 -144 82 -59 71 -60 165 -4 280 57 116 151 191 405 323 151 79 172 88 182
72 6 -10 -189 -674 -234 -797 -101 -275 -205 -431 -325 -486 -54 -25 -156 -25
-212 0 -56 26 -93 82 -100 154 -5 48 -1 64 25 121 17 37 29 73 26 81 -8 21
-95 85 -115 85 -25 0 -76 -65 -101 -130 -17 -43 -22 -77 -22 -155 -1 -90 2
-106 27 -157 59 -121 173 -188 333 -196 184 -9 324 64 455 236 62 82 155 265
207 407 50 136 359 1150 368 1206 9 52 -1 59 -87 59 -53 0 -72 -4 -94 -22z"/>
</g>
</svg>
